/* XPM */
static char *e666f52364704e56c9266531a6ba47ae3Ju5P8RTK5IaLoxQ[] = {
/* columns rows colors chars-per-pixel */
"64 64 115 2 ",
"   c #00170D",
".  c #001C0F",
"X  c #001E11",
"o  c #02220F",
"O  c #002313",
"+  c #002A16",
"@  c #092C11",
"#  c #002718",
"$  c #002D19",
"%  c #013116",
"&  c #0D3311",
"*  c #063B15",
"=  c #0B3B14",
"-  c #00331C",
";  c #003A1E",
":  c #003720",
">  c #003C21",
",  c #043F20",
"<  c #003E24",
"1  c #074417",
"2  c #0C4517",
"3  c #0C4C17",
"4  c #01431D",
"5  c #00441F",
"6  c #044A1B",
"7  c #0A4E1B",
"8  c #134A16",
"9  c #1A4915",
"0  c #06541C",
"q  c #09551E",
"w  c #0D5A1B",
"e  c #135317",
"r  c #1A5015",
"t  c #175817",
"y  c #185A15",
"u  c #1C5E17",
"i  c #12541B",
"p  c #195419",
"a  c #135C19",
"s  c #1B5C1C",
"d  c #1A6117",
"f  c #13651B",
"g  c #17771F",
"h  c #1D751C",
"j  c #157B1E",
"k  c #246617",
"l  c #266C17",
"z  c #2B6D17",
"x  c #256918",
"c  c #24711A",
"v  c #2D751A",
"b  c #21791C",
"n  c #2B7E1C",
"m  c #36761B",
"M  c #30781A",
"N  c #014022",
"B  c #014123",
"V  c #004621",
"C  c #024324",
"Z  c #004425",
"A  c #0B4724",
"S  c #004921",
"D  c #004A22",
"F  c #004A27",
"G  c #094924",
"H  c #004728",
"J  c #004B28",
"K  c #004F2B",
"L  c #045B22",
"P  c #00512B",
"I  c #00522A",
"U  c #00542B",
"Y  c #00532C",
"T  c #00562D",
"R  c #005A2F",
"E  c #025B2E",
"W  c #005C2E",
"Q  c #005E30",
"!  c #045E30",
"~  c #066121",
"^  c #056223",
"/  c #0B6521",
"(  c #066B22",
")  c #0B6B23",
"_  c #02602F",
"`  c #116922",
"'  c #0D7522",
"]  c #0F7A23",
"[  c #157621",
"{  c #127C23",
"}  c #137F22",
"|  c #006331",
" . c #036232",
".. c #056332",
"X. c #338C1C",
"o. c #2B9D1F",
"O. c #349A1C",
"+. c #3D9E1C",
"@. c #36AB1F",
"#. c #3DAF1F",
"$. c #1D8224",
"%. c #208323",
"&. c #238C24",
"*. c #279224",
"=. c #2B9A21",
"-. c #34A521",
";. c #30A920",
":. c #35AE21",
">. c #3BAD23",
",. c #3FB122",
"<. c #42A31A",
"1. c #45A320",
"2. c #43AC22",
"3. c #47B520",
"4. c #4BC424",
/* pixels */
"- - - - - + $ $ O # # O + - ; - - X C ..R ; - $ - ; - - - O $ C < X R R - O - - - - - - $ $ K Y - $ - - # - J Q F - - : - : > > ",
"- - - - - $ + $ O O O $ - + $ - - X Z R T ; - - $ - ; - $ $ - C C O T T X $ O $ $ $ $ $ $ O P R ; O $ # + O K P > - > > - > > > ",
"- - - - - - $ $ O $ - - $ $ O - $ X Z T P ; - - > - > ; - + - C > X K W X $ $ - $ - - - $ X F T ; # $ - - X R P ; $ - > : > > > ",
"- - - - - $ # O # - - + $ - O - - X > K U - - - > - > - $ # ; C > X P T X - $ - - - - - - O K T - O - $ + X P Y > $ > > - > : > ",
"- - - $ - # O - - + $ $ # O O $ - O B  .P - - - > B B - - + - > > X J R X - - - ; > > - - O K Y - # ; - - X J Y > - B - - > > > ",
"; - - - $ O # - # $ # O * ^ - - - O > P W ; - > > - - > $ O - C > X T  .O > + > > - ; - - O K W ; O - - $ X P R V - - > > - > > ",
"- - - - $ O $ - - - $ O 3 ] % - + O > ..T ; - - > > > > + # - < > X U  .O ; - > : B > - - O Z P ; O - - - X R Y B $ - > > : - > ",
"- - - - $ O # - - $ # O e } % - - O B  .P - - ; > : > - - # - > > X P T X B > B > > > ; $ X U P - # $ + $ X K Y B $ > - : > > > ",
"- - - $ $ O - $ # # ; # y g # - - O > W P - - > > > > B - # - C > X K Y X Z > > > > > > - O Z K - # - - - X P P > - > - > : : > ",
"- - $ $ O O # O - O ; O + + X ; - O > R K - - > > : > > - # - C > X R R X F : > > > ; - - O Z T ; # - $ $ X F R F $ > > > > > > ",
"- - - $ O O O - # O S O O # O - - X >  .R , - - > - B > - # $ < > X P Q X > > > B > ; - - O F P - O - - $ X J T V - > - > B > > ",
"- - - - + O - O - O S O O O O - - O B W T - - > > > > - - + ; C > O W T X - + - - + $ $ $ O P K - O - - - X P T B - - > > B > > ",
"- - - - # O $ O [ . V O # # O - $ O B R P ; $ - > > > > - # - < > X K  .X - - O - - - - # X C T - # - - $ X Y Y B - > > - > > > ",
"$ $ $ $ $ O - O ;.. 5 O O O O - - O B R P ; - ; > > B > - $ $ C > X K  .X ; - O K K J J F + B K > O $ $ - X C T B - B : - > > > ",
"- - - $ # O - # :.. ; O 8 q O - - X > R J - - > - > B : - # - Z > X T T X - - O P H J P P # Z J - O $ $ $ X K T B - - > > > > B ",
"- - - - # X ; # ( . + . t [ # - - O B R T ; - - > - - > - # $ : - X W Y X - $ X K H K K R $ B T ; O $ $ $ X F K > - > : > - > > ",
"$ - - $ # X + O X O s X u $.O - $ X ; J J - - > > > - > - # ; F > X K T X ; - O K K K J K # Z P - O - - - X J R V $ > > > : > > ",
"- $ - $ + O $ O + & 4.O x b O - - O > K T ; - > - B > - - # - < > O W R X - - O P P Z K P $ C K - O $ $ - X P T > - - - > > > > ",
"$ - - - $ O $ O - & @.# = = + - - O > K T - - - > - ; > ; # - Z < O W R X - - # - + # # O X > T ; O - - $ X J K > $ - - - > - > ",
"$ - - $ # O # X 5 @ #.O O - O - - O > R T - - > > > > > ; O - Z > X R  .X - + + $ $ O + - X F J $ O - $ - O F P B - > > > : > > ",
"- - $ - $ O O . S X 4 O + O . $ - O > R P $ - > > > > > ; $ - > > X P P X B - - - - - > - O F J ; O + - - O K T > - > - > > > > ",
"+ - - $ # O # X S . O O @ 6 O - $ O > W R ; - > > > - - - $ ; C > X K R X > > > - > > - - O B J ; O - $ $ X C J ; - > > - > > > ",
"$ - - - + X O O - O # O k &.% - $ X > T K - - - > > > > - $ - C > X P P X - - + - - $ $ - O Z T ; # - - - X Z T B + > > : > > > ",
"- - - - $ O # # # O # O e ` # - $ O > R T - - > > > - B ; - ; Z > O P Y > > > - ; - ; - - - K R ; O - - $ X P P > - > > - > > > ",
"- - - - $ O + # O O 4 + 1 ^ # $ - O B R T - - > > > - B - - - < > O T K T T T K T Y T H K K K P - O + $ $ X F Y B - - > > > > > ",
"+ + - - $ O O # + O S # O % # - - O > T T - - - > - > > > # - > - O P F B B > B > : > > > > > > + O $ - - O P T B $ > - > > > > ",
"$ O + - $ O O . L . S + . O # - - O > J J - - > - - > > ; $ - B $ O O O O O O O # O O O O O X O # + $ $ $ O Z K ; $ > > - - > > ",
"O O + $ $ O + X =.. S # O - O - - X > R W ; - - > > - > > - - ; + $ ; - - - - - - - - - $ + $ + - - - - - O P P B $ - > > > > > ",
"$ $ $ - + O O o 4.. ; + # O O $ $ X > K Y - - - > B > > > - O O O O O $ O O O O O O O # $ - - - - - - - - O T K > $ > - - > - > ",
"$ # - $ + X # O o.o ; + X ; O ; - . > P T ; - ; > > > > - - - - - $ # - - + # - $ $ $ $ $ $ - > > ; ; - - O J Y V $ - > B > > B ",
"- $ - - $ O $ O % O o O z *.# - $ X > T Y ; - - - - > > > > > - - - - O - $ $ + $ + - - - ; - > > > - ; ; O K Y B $ > : : > > > ",
"- O - $ $ O $ X O + 4 + l &.+ - $ X > T R - - - > > > > > > - - - $ $ - $ $ $ - - - ; > > > > ; > > - - - X K P > $ > - > > > > ",
"- O $ $ $ O $ O O @ } - d $.% - $ X ; R T ; - > > - > > > - ; > - ; - - - - $ $ - > - : > > > - ; B > - - X Z P > - > > > - > > ",
"- # $ - - O $ $ - o ' - 1 6 O - - X >  .W ; - : > : > B B ; - ; - > - + - > > > - - > : > > > B > > > - - O P T Z $ > > > > : > ",
"- O $ - + X O O - o ( 4 . O $ ; # X B R U ; - > > : > > - + O O O O O O - > > - > > > > > > > - > > - - - O Z P > $ > > > > > > ",
"$ # + - $ O $ + + . 4 - O - O $ - X B W K - - ; > - > : - # - F P J P P $ - > - > > > > > - > > > > > - - X U T > $ : > : : > B ",
"- O $ $ + O $ $ - . - O # O X - - O ; J T ; - > > > B B - + ; U K P J Z O - - > > > > : B B > > > > : - - O K P ; $ - > B > > > ",
"- # $ + # O $ ; - . # # 2 q O - - O > W R ; - - > > > B - + ; R U K K > + - > : > - > > > > - > > > - ; - O K K > - > > > > > > ",
"- # - $ + O # - # # # O e / O - - O > T T - - - ; > > B ; + # - - $ # O $ > : > > > > B B > : > - : > ; - O U K - - : > - - > > ",
"- O - - $ O # + O O - O e } + - - O > P T ; - > : > B > ; $ $ > - ; ; - + ; > B > : : > > > : - > > > - - O K P > - - > > > > > ",
"$ O - - # O $ O % . V # * 6 O ; - O B W T - - > > B : > - $ ; K P J J > # > B > > > > > B B > > B > : > ; O K P ; - > > : > - > ",
"- # - $ $ O + X ^ . S # O O O ; - O > Y R ; - > > $ - B : - $ B C C ; + - - - > > > B > B B - > > - - - - O P K > - > > > B > > ",
"- O $ - - O - O >.. 5 # O O O - $ O > R P - - - > > > > > - O # # # + + - - - > : > > > > > > > > B > ; - X K P B - > > > > > > ",
"$ # - $ $ O - X -.  $ O # # . ; - O > T  .B - - > - - B - ; ; - - - - - > > > > > > B > > B > > > > > - $ X K T > - B > > > > > ",
"+ # - - $ O # . ^ . + - + ; O - - X > K R > $ - > - > > > > - - > ; B - > > - > - : > > > > B - > > > - - X F T V $ > > - > : > ",
"$ # - $ $ O - X ; . + O 3 ) + - - O B Q P - - - ; > > > > - > > - > > > > - > > > > > > > > - > > > ; ; - X U P ; $ - > > > > > ",
"$ O $ $ + O $ O X O 5 # e } + - - O B R R > - > B > > > > > > > > > > > > > > > > > > > - - > > > > > - - X K K ; - > > : > > > ",
"- # - $ + O + O ; o ' - 3 } % - - O B R P - - - $ - - - $ - - - - $ - - + - - - $ - - - - $ $ - - - # $ $ X F P B - > > > > > > ",
"- O $ - # X + X 5 O ) ; 1 0 O - - O ; U R P B B - B ; G , - B ; ; A G ; G ; > A - ; ; - ; B ; - - , A B B A R J ; - > > > : > > ",
"- O $ - + O # . S . ) 4 + + X $ - O ; R K K T R T P J  .Y K R P T T ! T ! T Y _ K P T U T W K P K T ..P K R R P V - > > > > > > ",
"$ O $ - + O # X S o ) ; O O # - - O - T K J P J P J F P P K K P K K P J T P K J U K J K J T P P P P P P P T J J - - - > - > > > ",
"- # $ $ $ O # X 4 . % O # - - $ + $ $ $ # # $ O + # $ # + $ + # O + $ + - # $ + - + # # # $ - # $ $ + - $ $ # O O ; - - - > > > ",
"$ O - - + O # O - X O # - - $ $ $ O O $ $ # + O - + + # - $ - - # - - # # O + + # O O O + $ - $ $ - - # $ O # $ - - - - > > > > ",
"$ O - - + O $ # O # + $ - $ # O O O # - - $ O O O O # # - # O O O + - # O O # O # # $ O O O - - - - - - $ O - - - ; > > > > > > ",
"- O - - # O $ O O - - + + O O # # - - # O + w w f 6 X - # + f O.a . # O b X.4 - $ + = +.<.e # - - ; - # # $ ; ; - > ; > > > > > ",
"- # $ $ O X + # - - - O # O $ $ $ - - # + # 7 4 4 ; # # # - * 8 = O + ; i p % - $ # @ r 9 % - ; - + O # - - - ; > > - > > > > > ",
"- O - $ # O $ - $ - # O # $ - - - $ # # + # O O # $ + # O O O % + - O O # O - $ + + + O O - - $ $ # $ - - $ - > > > > > > > > B ",
"$ # # - $ O $ - - O X # - - - - $ # O + t M e O - # O % 2 m 9 + - % u c . - # 2 v = + % $ - - $ O $ $ - - - - > > ; > > - > > > ",
"# $ - - $ O # - O O $ $ - - ; $ # # + % w c a # + O # - 7 n p - # % 7 6 # + - %.j * O - ; - + O - $ $ - - - > > - > > > > > > > ",
"- - - - $ O + O O - - $ - ; - $ # O + O O O # + O # - - - + + # - + - $ # # + + - # $ - - $ O $ > - - - ; > : > - > > > > - > > ",
"- - - - $ O O # - - ; ; - - - $ # 5 5 ; # + O O + O O - - - O . V O + $ O X % . O - - - - O $ - ; - - > > ; > > > : - - > - > > ",
"- ; - $ $ O $ - ; ; ; $ # $ O # 5 =.2./ ; O % + j 3.1.# + % h 2.* O # 0 ,.>.@ / X $ - - O # ; > > $ - > - - > > > > > > - - > > ",
"; - - ; - # - - ; - - - - O O + + O X O # - - ; O + + - - - - + $ - - ; ; - O # ; - $ O # ; > B Z - - > > - > > > > - $ > > > : ",
"$ $ + $ $ # O O O O O O O O O O O O O O O O O O O O O O O O O O O O O O O O O O O O O O - ; - - - + $ - - - - - - - > - - - - : "
};
