/* XPM */
static char *_fa08ff7225a485cc559c45c39682326vUK5m35w607Uwo3W[] = {
/* columns rows colors chars-per-pixel */
"64 64 17 1 ",
"  c #002717",
". c #002B17",
"X c #002A1A",
"o c #002F1A",
"O c #002F1D",
"+ c #00311B",
"@ c #00301C",
"# c #00341C",
"$ c #00381F",
"% c #003B1F",
"& c #003320",
"* c #003721",
"= c #003820",
"- c #003D20",
"; c #003F23",
": c #004021",
"> c #004024",
/* pixels */
"o+o@###===***=---*@=-==--=#*=*->:---:---=*--=--=*=------===@&===",
"++o+@##===###=:====-$===-=@*=*===-----==*@-=#--=*====-:--=-*#*==",
"o+ooo##=-=@#=-:=*->-*=*=-#@=-#@@@-->:-=*@@=**--==**&*-:>>:::=*==",
"oo+oo###--==::-=#--:=---:=#*=-==-->--=====-=---=*=-==-==-::-----",
"oo+oo###==--:>>=#==:-->::-=*=->>>-:-===---=-->-=*-----=*=>:--:--",
"o++@@#$----**-:=*==---==---==-----==--==--=--::-=----:-===:-----",
"o+@@##$::::*@-:===----@*==--------=#--==-----::-=----:-===-:-=->",
"oo+o#$$--=-----==--==---*#=--*=---=*=#=-=-:---*@*--==--=*--*=>-=",
"oooo#$-=-==-----=--==-:-=#=--**---=*=*=-==:--=#@*--==--==--*=:-*",
"oo+$#@$@###=--$=-:----*=>==:-@*-:--&*==-:=-==--**==---::----::=@",
"oX+$#@$@###=--=*=>----*=:-->-**-:>-#*---:=---:-==*#-------:>::=*",
"oXo#$$$#==#-:-=*=-----*@=------==:--:-=-:----:-:-@&-:=#*==--=--*",
"oX+#$$##==$-:====-----=#=------*=---::==--------=*#--=*===--=--*",
"Xo#$#@=:#@-----==*@*---*=*@&=##-----=-=#=======*->:-==-:=@=*@->-",
"Xo###@$-##=-:-===#@=-=-==*&*=*#-----=-=#==*====#->:==-:>=*==#-::",
"o+oo@##@===-:-@==--=#*---==-----------##--==-:=@*--=*-:>-=-::---",
"o+oo#$$@===-:=@==:-=#*-:--------===--:=*--=*-:-@*--=*-::-==-----",
"o++o#=$#@@-:--===-=*==-----=*=>====*=:--==#*==---====-::-**@#---",
"o+++#$$#@@=--==--=====--=::-=------==----=*=-==:>--------=**=--=",
"o@#o+##$-=@#-=*-:==--*-=*--->---->-==#-::----*=>>---:-==-:--::==",
"o+++@##$--@#-==::====*-=#==-:-=-----=*->>:---==------===--==:-=*",
"Xoo###----@#-=->-@&*#=-=@@=>:**=-*-:*@=>----::-=&=>=#@=>:#@=:-==",
"Xoo#$$-=--*#-----#*##=-=*#=--=====-:=*-:==-----=*=-=#*=--*#=--==",
"ooo@--#@-::-=-:==-=@=------**---=@*:-::-@@-------*@=-===-:-*&-:-",
"oo++$$#$-:-----=*--#--==---==-->-==:----**-==----=#---===:-**---",
"Xo++#$=-::-----=#--::=@*->-:-=-:---:-*=----=-:-->:---:>*=:=***=-",
"o++@@#$-==--=-====--=**=----=--------==----=--===---==------=##=",
"++@#+@#$#@--==@->---O#-----==------------:-==#=##==-=#=>-#-:=@@=",
"+++o+$$####===#==--==----:-*===----=#=-----**==@#=---=--==---*=-",
"o+oo#$$#$#@@=-=**:-#-:-=:>-****--=-##-::---**-=@*---:::=*=------",
"oo+####===$==-==-===--##>-=#*==---=#===:--=#=::--:-==:=====*----",
"oXo$#o#-=#----$=:*#---@*-==#@=--->=#=**>--**=>>>::-@*:*#-=*#----",
"Xo+#@@##=-:-===--**--=*=-==&*--*#==##*=----=---:-====-=--===----",
"X+##Oo##=->-##--:#@---===&@**>=#*=-#@#==-::------==:----::-#=--:",
"oooo###@=-====:*#==-@#--=-=##=----#=-=-=*=-=::-=*#*>-=*=-:-=#=-=",
"oooo#-#@==**--:*@=--@#---:=@*=->::*=:--=**==-:==*#*==#**--:=@=-*",
"oooo@$$--=*=-====@@*-==**=-------:=@@*->=@=--=*--***=----===----",
".ooo@#$---=--=#*=OO#--=#*=:--==-=:=@@#->=@=:-**>-=**=>>:-#*=:::-",
".ooo@###----=-==#*##--=--=*-=##**==--===-:-==-=-:==--#=:-===:::=",
"Xo@+##@@----=---*=#*--=-:#&--*@@**=:-===-:-===---=-:-#=>===--:-*",
".X+###@@#=:---:-*@*-:=#*=-->-----:-==-==*@====--:------>*@--#@*=",
".Xoo@$#@$=----:-=#=->=***==-------===---=*====-=------:-==--@@#-",
"XXXX@$#@=---------->>-*##@&=-=*--*##=:::::-==--====-:>------@O*>",
"XXo+@@@@@@=-------=--====**--========-==-:-===-----:=*=-----====",
"X.o#+X@#OO=----=-=#===--:==----#*-:---@@-:--=*->---:=@*=*=--::=@",
"oo+@@@o@*=*=----#==***=------###->:-*====-*==*->>==::==---::=@=-",
"o++@@#@@=-*=:---#=-#**==----=*@*-::-*=-=-=*==#-::=*-:--:>>::#O#:",
"Xoooo@#$-------:---*---=---==--===-:-----:-----::=#=:::--::-*@=-",
"Xoo++@#$--=-:-=----=->------->=*-=->------->-----=*->>:==:--**->",
"ooo#@##=--@#:=@*=-::>--*@-::--=*------:---::*=-=#=----=*=--:::::",
"ooo###$=--#*-=@**-:::--*@-:----=-----:::----*=-*#=----=*=-:::>>-",
"Xo+#@$$#@*====-*@=---=*----=*=-:-=**===-:>-==-=*--#@@=-----:>-==",
"Xo+#@$$@@@====>##==--=#-:-====-:-=##**=----==:=*--@@@-:------===",
"o++o+#$=-----=*----=***--##---=@@--==-=**=-==-----=-*#----=*&#=:",
"o++o+##=-----==-::-=#*=-:#*---=@#:--=-=**=-====-:-==**->--=*=*-:",
"ooo+#@O@---==---::=#**=::*@*=----:----#*=-=*#*#=:-O@**---:>--=-:",
"ooo+@+@#=--=#=----===*=::=@=--==--::-=**--=*#*==>-@#=*-:----=---",
"o+++o+$=##-=&*=#$==-:==>:*#-:=*#=-----==-==---:--==-:--:-==**--:",
"ooo+++#$##-=#======-:----*#=-==*=------------->:-==----:-*=#*-:-",
"oXo+#@O@#$-------==*-:-=*=---:>---=-------::-&*--=*=-====&*==:::",
"XXX+@@##===----=====-:-**=--::>----==-::==->-@*-=**=-====#=-===:",
". Xo++$-==*=-=-##=---:-**=*-::---:-=*->-@@-:-@=-===--#*:-=--**=-",
"XXoo+@$-###===-=$#*-::-===*=--=**=-==--:==---=--==---#=-----===*",
"ooo++@$=@@@**=-==@@->:--:===-=#@@==--=-:::-----==->-=*=------:=@"
};
