/* XPM */
static char *bb5397c0825343a1fdd3dfff123e8b2bOCnR4W1P9WpWxaup[] = {
/* columns rows colors chars-per-pixel */
"64 64 212 2 ",
"   c #030A16",
".  c #0B0C16",
"X  c #040E19",
"o  c #080E19",
"O  c #160E16",
"+  c #06121C",
"@  c #09141E",
"#  c #061C1C",
"$  c #0A1A1D",
"%  c #161117",
"&  c #1C1116",
"*  c #141219",
"=  c #1B1419",
"-  c #261417",
";  c #2B1516",
":  c #281718",
">  c #341616",
",  c #3D1716",
"<  c #331917",
"1  c #3C1A16",
"2  c #341A19",
"3  c #3C1C19",
"4  c #0D241E",
"5  c #06281E",
"6  c #12251D",
"7  c #152B1F",
"8  c #1A2E1F",
"9  c #1A311F",
"0  c #282A1D",
"q  c #3C241C",
"w  c #2C341F",
"e  c #0C1620",
"r  c #061824",
"t  c #0E1922",
"y  c #121D25",
"u  c #1F1D22",
"i  c #161F28",
"p  c #251E21",
"a  c #0B2321",
"s  c #062B26",
"d  c #0A2C22",
"f  c #152524",
"g  c #142C22",
"h  c #162129",
"j  c #1A242C",
"k  c #1E282E",
"l  c #073523",
"z  c #0B3224",
"x  c #0A3B24",
"c  c #1D3320",
"v  c #072337",
"b  c #1F2930",
"n  c #083837",
"m  c #223621",
"M  c #253921",
"N  c #2B3D21",
"B  c #232C33",
"V  c #212F38",
"C  c #263036",
"Z  c #273137",
"A  c #2A343A",
"S  c #2E383E",
"D  c #421B16",
"F  c #4B1D17",
"G  c #471E18",
"H  c #531E17",
"J  c #561F18",
"K  c #671F16",
"L  c #42221B",
"P  c #4C221A",
"I  c #472C1E",
"U  c #562117",
"Y  c #522219",
"T  c #5B2419",
"R  c #5C2C1D",
"E  c #642417",
"W  c #642519",
"Q  c #632A1B",
"!  c #6C2B1B",
"~  c #762D1B",
"^  c #6A341E",
"/  c #73321E",
"(  c #7C331D",
")  c #4E3320",
"_  c #5B3722",
"`  c #663421",
"'  c #733621",
"]  c #7A3922",
"[  c #094426",
"{  c #0B442B",
"}  c #0B4C2B",
"|  c #154328",
" . c #0A5327",
".. c #0B532B",
"X. c #0C5C2B",
"o. c #115E2A",
"O. c #0A4C37",
"+. c #0B573D",
"@. c #2E4121",
"#. c #344422",
"$. c #394422",
"%. c #3B4B22",
"&. c #0D642C",
"*. c #0D6B2E",
"=. c #0F732F",
"-. c #0E6E31",
";. c #0D643F",
":. c #0E6D3D",
">. c #106930",
",. c #0E7330",
"<. c #0D7C32",
"1. c #0F753D",
"2. c #0F7B3D",
"3. c #117733",
"4. c #10753C",
"5. c #107C3D",
"6. c #465323",
"7. c #4B5723",
"8. c #5C6425",
"9. c #2F3B41",
"0. c #323D43",
"q. c #0B5441",
"w. c #094E56",
"e. c #384449",
"r. c #3F4A50",
"t. c #0C6340",
"y. c #0D6A40",
"u. c #0E7340",
"i. c #0F7B40",
"p. c #107B40",
"a. c #08627D",
"s. c #434F54",
"d. c #455156",
"f. c #485559",
"g. c #5C6A6C",
"h. c #892F1A",
"j. c #83341D",
"k. c #8A381F",
"l. c #873A20",
"z. c #8C3C21",
"x. c #933D21",
"c. c #983F21",
"v. c #8A4426",
"b. c #944324",
"n. c #9B4423",
"m. c #9C4926",
"M. c #A44B26",
"N. c #A64F28",
"B. c #A2502A",
"V. c #AC5329",
"C. c #B1562B",
"Z. c #B3592D",
"A. c #BB6335",
"S. c #C36A39",
"D. c #CF7741",
"F. c #0E8434",
"G. c #0F8D35",
"H. c #0F833E",
"J. c #0F8B3F",
"K. c #10833E",
"L. c #108A3F",
"P. c #0E9835",
"I. c #0F923C",
"U. c #0F9D3E",
"Y. c #109936",
"T. c #10913C",
"R. c #119D3A",
"E. c #0FA437",
"W. c #0FA23D",
"Q. c #0FAA3D",
"!. c #11A43B",
"~. c #11AA3C",
"^. c #0FB33C",
"/. c #0FBC3E",
"(. c #12B33D",
"). c #11BB3D",
"_. c #0FC43E",
"`. c #0FCC3F",
"'. c #12C83F",
"]. c #0FD23F",
"[. c #0FD83F",
"{. c #10D43F",
"}. c #0F8440",
"|. c #0F8C40",
" X c #108440",
".X c #108940",
"XX c #108D41",
"oX c #0F9241",
"OX c #0F9B41",
"+X c #109241",
"@X c #109441",
"#X c #119542",
"$X c #119942",
"%X c #119D43",
"&X c #0FA442",
"*X c #0FAB43",
"=X c #10A343",
"-X c #10AB44",
";X c #11B344",
":X c #11BB44",
">X c #0FC341",
",X c #0FCD40",
"<X c #11C344",
"1X c #11CC43",
"2X c #0FD540",
"3X c #0FD940",
"4X c #11D442",
"5X c #10DB42",
"6X c #11E042",
"7X c #086282",
"8X c #058893",
"9X c #0898B2",
/* pixels */
"1.1.1.4.4.2.1.5.K.5.1.5.5.5.5.5.1.5.1.5.5.2. XK..XH. X5.K.5.5.XXH.XX X.X XK.K. X}. XK.H.K.K.5.4.5.5.K.5.1.5.1.1.1.1.1.4.4.1.1.1.",
"1.1.1.1.1.1.1.5.1.5.K.K.5.5.5.5.5.K.5..X XK. X X.X.X X X:.{ { } { { { 2..XXX X.X.X.XH.K.K. X.X5.K.5.K.K.5.5.2.K.5.5.5.5.5.5.K.2.",
"1.1.4.1.4.4.2.5.1.K.K.K.K.K.K.5. X5..X X@X X.X X@XXXXX{ M R R ` ` ` R | ..XX.XXX@XXX}.@X.XXX XXXK.L.K.L.H.5.K.5.K.4.1.5.1.5.5.1.",
"4.4.4.5.5.K.1.K.K.H.5.5.K.K.K.K. X X.X XXX@X.X@X@X%X[ P ] N.V.V.V.A.A.P 2 } @X@X@XXX%X@X$X.XXXXXK.@XK.K.K.K.K.1.5.K.H.5.K.2.2.5.",
"1.4.5.1.1.2.L.1.5.2.K.K.K.K. XXX XXX X@X.X@X$X@X$X..3 x.V.Z.C.C.Z.A.D.A.m.) X.@XoX$X$X}.@X X$X X@X.X@XK.K.H.1.L.5.K.4.K.K.K.K.5.",
"2.5.1.1.K.1.K.L.5.L.L.XX X XXXXX@X X$X@X=XXX%X$X@Xd T n.V.C.C.C.C.Z.A.S.Z.v.l %X=X@XoX=XXX%XXX@X@X X.X@XK.K.T.K.K.1.L.L.5.5.K.H.",
"H.1.5.K.5.K.5.K.L.K..X.X.X@X@X X@X@X$X.X$X=X$X=X=Xl W k.n.C.C.V.V.V.V.V.C.v.d %X%X$X-X%X=X%X=X=X}.@X X.XXXL.K.1.L.K.K.5.K.1.2.L.",
"1.5.K.5.1.K.L.K.K.@X}.@X@XXXXX@X.X$XXX=X@X=X=X%X=Xx E j.x.V.C.c.V.M.M.C.N.Y x -X=X-X=X@X=X|.$X@X%XXX@X X.X.X5.T.5.K.1.K.K.K.5.2.",
"5.H.5.1.K.1.K.@XK.H.@X$X@X@X$X@X%X+X=X$X-X$X=X=X| . U ~ W P v.N.l.z.n.B.- G l ;X;X-X%X-X@X=X@X=XXX%XXXXXXX.XXXL.L.5.L.L.1.H.L.K.",
"H.5.2.K.K.5.2.@X@X@X@X@X@X$X@X$X=X=X=X$X-X-X-X..F h.& J T >   Q F Y H . L ; *  .-X-X;X-X=X-X=X@X=X@X$XXXXX@XXXK.XXL.L.K.L.2.H.L.",
"2.2.K.K.K.L.L.H.@X@X@X@X@X@X%X=X$X=X%X=X=X-X-X..- D H O .   j j   % .   V p ] } ;X:X;X=X-X=X-X=X=X%X@X@X$X@X.X@XK.XX5.H.L.K.K.2.",
"2.K.K.K.L.H.L.XXXXoX$X%X%X%X=X$X=X=X=X-X-X-X;XX.D ; H H Y =     < ( P . X q ^  .:X:X-X-X-X-X=X-X%X=X%X%X@X@X@X@XXXJ.K.L.H.L.L.K.",
"K.K.K.L.L.K. X@XXX$X=X%X=X=X%X%X-X-X;X-X;X;X;XG.0 > H U ( ' I 3 l.S.V.G L j.) <.:X:X;X:X-X;X-X-X=X%X=X%X@X$X$X@X$X|.XX.X.XK.L.K.",
"K.K.K.L..X@XJ.XX$X=X=X%X=X=X=X-X=X;X-X-X;X;X;X:X[ ; > F U n.V.k.] v.' ( V.] [ <X:X;X:X;X;X-X;X-X-X=X=X%X%X%X@X@X@X$XXXL.XXJ.J.T.",
"K.H.J.L.H.XX@XXX$X$XoX=X=X=X-X-X=X;X=X;X-X;X:XI.d     D E z.V.m.' ' ' m.V.Y 5 I.<X1X:X-X;X-X;X;X-X;X=X-X=X$XOX=X@X$X|.@XXX@X@XL.",
"L.@XJ. X@X}.@X$XXX|.=X=X-X-X=X=X;X*X:X-X;X:XL.z +     1 E k.V.l.R R R ( N.3 X d I.<X;X<X-X<X-X;X-X-X;X-X=X%X=X=X=X|.%X$X.XXX$X@X",
"XX.XL.$X@X$X|.@X%X=X=X%X=X-X-X;X;X;X;X-X:XT.g y e X % & T ~ n.Q v.b.b.! b.* y i d R.<X:X:X:X:X-X:X-X;X=X-X;X-X@X=X=X=XXX$XXXXX@X",
"|.L.T.@XXX@X%X@X=X=X=X=X=X-X;X;X-X:Xz a 5 g B j e X = < - W j.~ j.Q j.x.! X i B C a # z 1X:X:X<X;X:X-X;X;X-X=X-X$X-X@X=X%X%X@XXX",
"@X@X@XXX$X|.%X=X$X$X=X-X-X;X;X*XT.@ k j i y 9.k i X = G 1 . T x.M.V.M.j.%   + e C y h j @ *.:X<X;X:X:X;X-X-X;X-X-X$X-X=X@X$X%X@X",
"$X@X@X%X%XOXOX=X-X-X-X=X*X;X;X!.e B b f.C e y C B + : 1 1 &   G E E E % <   + y e e 9.d.B @ >.<X<X;X:X;X;X;X;X&X-X-X-X%X=X$X%X=X",
"@X$X%X=X%X-X=X=X-X;X-X-X-X;X-XX h C d.C 0.h e y B @ = - 1 > - . . . . < D X e e @ h j f.g.B y T.:X:X:X;X:X:X-X-X-X;X=X=X-X=X=X=X",
"$X=X=X=X=X-X;X-X-X&X;X;X;X;X3.@ y j 0.C i C h @ h y X ^ b.z.U 1 1 D U j.( o e + e k k B d.A y L.<X<X<X<X:X:X;X:X-X-X-X;X=X-X=X=X",
"=X=X=X=X-X&X;X;X-XH.F.R.:X:X# e y j B B B h B h j j + 8 L ! ( ( ! E j.j.! o h h j j k y C 0.y T.<X<X<X<X:X<X<X:X;X-X;X;X-X-X-X-X",
"-X=X-X-X-X;X*X:XI.0 , N R.<X# @ e y j j k y A 9.C h + 8 0 Q k.b.k.Q j.b.^ + j k r.k B @ B B y T.<X1X<X<X<X<X<X:X;X:X;X-X;X*X-X-X",
"=X-X;X;X-X:X:X:X..D E K $.*.+ + @ @ e e h e B s.S j + M #.w ) _ I q I _ #.+ j B 0.y B @ h i @ T.1X1X1X1X1X<.-.F.:X:X;X:X:X:X;X;X",
"-X;X;X-X;X*X:X:X..& - > > 2 3 @ h h h e e + e r.e.k + M 6.6.7.#.N 8 N 6.#.+ h 0.C i k + h b h x :X<X1X<X<.w.8Xw.<.;X<X<X;X:X:X;X",
";X;X;X:X:X:X:X,.0 ^ v.' - . Y G @ k 0.k e + @ b d.C + M %.6.8.8.$.m 6.7.%.+ j S b i e h S d.B + ~.4X1X<.n 9X9Xa. .<X<X:X<X;X:X:X",
"*X;X:X:X;X<X<X*.P k.] : R ] - G + j k B y + e + C B + m %.%.%.%.@.m %.6.%.+ b B i j + i C A i X !.~.# + v 7Xv e ..:X:X<X<X<X:X:X",
";X:X:X:X:X:X<X*.G ~ ; ( n./ % o e e j j y + t + k B + 6 M @.N N 4 7 M N c + j i y i @ j i @ e e X D E 3 v r ( n._ X.<X1X:X:X<X:X",
":X:X:X:X<X:X<X*.1 U 2 k.( 2 v.v.. - e y e + e @ e k + $ 4 6 6 6 c c 7 7 4 + h y i e @ h @ j e.S + E ~ 3 O * W x.` X.1X<X<X:X:X:X",
":X:X:X<X:X1X:XY.8 1 T ( T ( b.T 3 ! = @ @ X @ e + j + c c @.%.6.%.%.6.%.c + e e j + @ + j e.0.e . D - < z.M.* j.R X.<X<X1X<X<X<X",
";X<X<X<X<X<X1X1X<.0 ! ! / b.Q 3 b.b.L e + x + @ + j + 6 M N @.m c c N #.7 + y e y + e e b C C @ P % > 3 ~ x.L W w F.<X1X1X1X<X:X",
":X<X:X<X1X>X1X4X1X,.; Q ! Q 2 j.n.N.Q e # R.+ @ + j + 4 7 8 c M c 7 c 7 g + j j e X e y y j B @ ! > & P 1 ! ( 6 G.1X4X1X<X1X1X<X",
"<X<X<X1X1X4X<X1X1X<X+ - 2 1 Y ~ j.j.Y + # Y.+ e + j + 4 7 7 #.%.M 8 N m 4 + j B @  .a y y i j + T < % U D 1 q <.1X4X4X1X4X<X<X1X",
"<X<X1X1X<X1X4X<X1X1X*.+ u 3 Y F Y P - + G.R.@ y e e + 6 c 4 7 8 6 4 7 4 g + j k @ U.G.+ y e e @ = G ; & & o.F.1X4X4X<X4X4X4X1X<X",
"<X1X1X<X1X1X4X4X1X4X1X-.e * * * * @   Y.).d y y y + $ c c 7 m M 9 4 c c g + j k + R.4XY.X @ e e X * * X *.<X4X4X4X1X4X4X1X1X4X1X",
"1X1X1X4X4X1X4X4X4X1X4X1X*.@ @ @ @ + !.1X(.+ y j h + + $ $ + $ k S S j $ @ + y j + R.5X4X).*.@ t e e $ ,.1X5X5X5X1X4X4X1X4X1X1X4X",
"1X1X4X4X1X4X4X1X4X5X5X4X1X1X1X1X<X<X4X1X$ y j S h X i j i e @ j + e e e y + @ h e # 1X5X4X4X4X4X1X4X4X4X5X5X4X5X5X5X4X4X5X4X4X1X",
"1X4X4X4X4X4X4X4X4X5X5X4X5X5X4X5X5X5X4XR.@ j A C @ @ e y e e e e e e @ @ @ + + j B e !.5X5X5X5X5X5X5X5X5X5X5X5X5X5X5X4X5X4X4X4X4X",
"4X4X4X4X5X4X4X5X4X4X4X4X5X5X5X5X5X5X!.$ i B A e + e j C B k k k y b k k B h y y B k # 5X5X5X5X5X5X5X5X5X5X5X5X5X5X4X5X4X4X4X4X4X",
"4X4X4X5X4X5X4X4X5X4X4X5X5X5X5X5X5X~.d y k C j e e y h k k j h h y h h k j j h e k C f R.5X2X5X5X5X6X5X5X5X5X5X5X4X5X5X4X5X4X4X4X",
"1X4X5X5X4X5X5X4X5X5X5X5X5X4X5X5XP.x e k B h e t y B C j j j B B y k i i i y j j e k B a !.5X5X5X3X5X5X5X6X5X5X5X5X5X4X5X5X5X4X4X",
"4X5X5X4X5X2X5X5X5X5X5X5X5X5X4X~.x y j C j + y h B A C B h y i j e e + e y j B C b e k B z (.5X2X5X2X5X5X5X5X5X2X5X2X5X5X4X4X5X4X",
"5X4X4X5X5X5X4X6X6X5X5X5X5X5XQ.x y j C j + y i B C C B B h e @ @ + + + y i j b S S b y k B | E.5X5X5X5X5X5X6X5X5X4X5X5X4X5X2X5X5X",
"5X3X5X5X2X5X5X5X5X5X5X5X4X).z y j B j + y i j B B k B B k e + X X + e e h j j B 9.C k y h k x (.2X5X5X5X6X5X5X5X5X5X2X5X6X5X5X5X",
"4X5X5X2X5X2X5X5X5X5X5X5X'.d e i B j + + y y y k C B B B j @ + @ + X @ e y k k k A e.j i X b B z _.2X5X5X5X5X5X3X5X3X5X5X3X5X5X4X",
"5X5X5X5X5X5X5X5X5X5X5X4X5 e y C j @ e X e y b k Z C b k e + @ e @ + + e e y j j k 0.j y X + B b d 4X5X5X3X3X5X3X5X5X5X5X5X3X5X5X",
"5X5X5X5X3X5X5X5X5X5X'.5 y y b j + e @ + t B 0.A B k k y e + e e e + + @ e e y j j j B A y + + h $ ).2X5X5X5X3X6X3X5X5X3X5X5X3X5X",
"5X5X5X5X5X3X5X5X5X5Xx e h B k + e @ + e e i j k j h h e + e e e e @ @ + @ @ e t y y j j i + e + h # 4X2X3X5X5X3X3X5X2X5X3X3X3X2X",
"5X5X5X3X5X3X3X5X2X~.d e k B y @ @ + e e e y y h i y e + e e e e e @ @ @ + X @ e e y i y e + e e i a P.2X3X5X3X3X5X2X5X5X3X3X3X2X",
"5X2X2X5X5X3X2X5X5X&.e y B y + e + + e y @ e e y y e + e e @ + + @ e e e e + @ e y e e e e + + e e y x 2X3X5X5X5X5X3X5X2X3X2X3X3X",
"4X4X4X].].].5X2X3X&.e h B X + + + @ e y e e e h i + + + + x *.*...+ + + + + y y i e e e e x *.d e e x 2X5X].].3X].3X].5X].3X3X].",
"4X4X4X{.4X2X5X{.4XR.d i j # ,.-.z @ e e e y j k j X &.,.,.E.2X2X).=.,.=.*.+ e y y e e y e &.,XG.a e x 5X2X].3X[.3X3X5X5X5X3X2X4X",
"].].].{.].].].].].2XP.a y 5 4X`. .@ e e e b B k y X./.`.].4X2X2X2X2X].2X_.&.e e e e e h d E.2X`.F.+ x 4X].2X].].].].].2X2X].].].",
"].].].].].].].].].].`.^.@ 5 4X].X.@ e e j B j e *._.,X].].].].].`.].].].`.E.+ e e @ j j x 2X].].`.~.^.].].].].].].].].].].].].].",
"`.`.`.`.].`.].].].].`.].Q.Q.`.<.# e e e e e @ X./.2X].].].].].].`.].`.].`.E.+ y h j e e x 2X`.`.].].].].].].].].].].].].].`.`.].",
"`.`.`.`.`.`.`.`.`.`.`.`.`.`.`.*.@ t y k i e @ *.`.,X].`.`.`.`.`.`.`.`.`.).# e e e e j j y *.`.`.`.`.`.`.`.].`.`.`.`.`.`.`.`.`.`.",
"_._._._._.`.`.`.`._.`.`.`.`./.X.+ + + + + @  ._.`.`.`.,X`.`.`.`.`.,X`.,X).+ @ e + + + + + X.^._.`.`.`.`.`.`.`.`.`._._.`._._._._.",
")./././././././././._./././.<.+ e h b j + + } /.>X_.:X>X/.>X>X>X_._._._.~.X + + + @ i j j j e 3./._._././._.:X:X/./._./././././.",
"I.U.U.U.U.U.!.W.~.&X*X*XOXI.} e h A 9.B j e x oXoX|.|.OXoXOXOXOXoXOXoXOXH.+ t t y y y j B e.A e -.W.Q.W.Q.Q.U.W.W.W.Q.W.U.U.W.W.",
"H.2.H.H.H.J.H.J.H.1.i.|.u.;.X y h j j j h e s q.q.q.q.q.q.q.q.q.q.q.q.q.O.+ e e e e y h h j j j + J.H.H.H.H.J.I.J.H.J.I.J.H.J.J.",
"K.K.H.H.1.1.1.1.:.;.+.+.+.O.X @ e y y y e t n +.q.q.+.q.q.q.q.q.q.q.q.q.O.s s s s r @ e e y y y + :.1.1.1.2.1.2.H.2.2.K.K.5.2.2.",
"1.1.2.1.H.:.1.:.1.4.;.;.;.+.{ { { { { { } } ;.t.t.t.;.t.t.;.t.t.;.t.t.y.t.t.;.;.;.} { { { } { } { :.2.1.H.H.1.2.1.K.K.5.K.5.1.2.",
"1.1.1.5.1.1.:.1.1.1.1.1.1.1.5.5.4.5.1.1. X1.2.u.i.i.}.i.5.i.p. Xi.i.p..Xp.p. Xi. X1.K.1.5.H.1.K.1.2.1.1.1.1.2.1.4.1.1.5.1.5.5.1."
};
