/* XPM */
static char *ee4063d6b5e6461ae875fffc88b249d6W5ov9UeSjiSgBlPj[] = {
/* columns rows colors chars-per-pixel */
"64 64 212 2 ",
"   c #040403",
".  c #0A0705",
"X  c #060905",
"o  c #0B0A06",
"O  c #060508",
"+  c #0A0708",
"@  c #060B0A",
"#  c #0A0B0A",
"$  c #120D06",
"%  c #120D09",
"&  c #1A0F08",
"*  c #0E120C",
"=  c #161206",
"-  c #1A1307",
";  c #14120B",
":  c #1B140A",
">  c #1F190B",
",  c #060E10",
"<  c #0C0F11",
"1  c #061213",
"2  c #0B1213",
"3  c #051A17",
"4  c #091519",
"5  c #061819",
"6  c #071B1A",
"7  c #091D1B",
"8  c #121413",
"9  c #1B1715",
"0  c #151B14",
"q  c #1A1C14",
"w  c #151619",
"e  c #171A1B",
"r  c #191B1C",
"t  c #211805",
"y  c #22160B",
"u  c #241B0B",
"i  c #2A1D0C",
"p  c #331E0F",
"a  c #251B11",
"s  c #2A1F11",
"d  c #002717",
"f  c #002917",
"g  c #06231D",
"h  c #0A231D",
"j  c #002D1A",
"k  c #08291F",
"l  c #192116",
"z  c #11221E",
"x  c #1B241B",
"c  c #1D291F",
"v  c #00341D",
"b  c #00391F",
"n  c #27200C",
"m  c #2D200C",
"M  c #34240E",
"N  c #39250D",
"B  c #3E280F",
"V  c #2B2314",
"C  c #24271A",
"Z  c #352513",
"A  c #392712",
"S  c #362914",
"D  c #3E2A12",
"F  c #372A1A",
"G  c #3B2C1C",
"H  c #0A1F21",
"J  c #161D22",
"K  c #1C1E22",
"L  c #072625",
"P  c #0A2422",
"I  c #052C24",
"U  c #0A2D25",
"Y  c #0A2D2A",
"T  c #1E2125",
"R  c #112D22",
"E  c #142826",
"W  c #1E2A21",
"Q  c #1F2229",
"!  c #013621",
"~  c #0A3226",
"^  c #003C21",
"/  c #063529",
"(  c #093529",
")  c #053B29",
"_  c #083A2B",
"`  c #1F3A2E",
"'  c #202425",
"]  c #222D23",
"[  c #21242A",
"{  c #252A2C",
"}  c #243125",
"|  c #283426",
" . c #253529",
".. c #29352A",
"X. c #2C3C2D",
"o. c #313F2F",
"O. c #272B31",
"+. c #2A2E34",
"@. c #2E3237",
"#. c #2E3D30",
"$. c #313E32",
"%. c #31363A",
"&. c #31393A",
"*. c #432D14",
"=. c #473115",
"-. c #44321C",
";. c #49331A",
":. c #58391A",
">. c #463523",
",. c #4C3B23",
"<. c #4A3D2B",
"1. c #543E23",
"2. c #553D27",
"3. c #004022",
"4. c #004123",
"5. c #04412A",
"6. c #2F422F",
"7. c #2F4131",
"8. c #324333",
"9. c #384536",
"0. c #68461E",
"q. c #734B1C",
"w. c #4D4029",
"e. c #554022",
"r. c #5C4325",
"t. c #57442B",
"y. c #5D452A",
"u. c #494636",
"i. c #644826",
"p. c #644928",
"a. c #694C2C",
"s. c #774C24",
"d. c #724F2A",
"f. c #6E512D",
"g. c #71522D",
"h. c #7B552B",
"j. c #624D33",
"k. c #6D5534",
"l. c #755633",
"z. c #7E623A",
"x. c #7C6949",
"c. c #845B2F",
"v. c #8D5D2C",
"b. c #835E31",
"n. c #8A5F30",
"m. c #876438",
"M. c #8A6439",
"N. c #936A3C",
"B. c #986838",
"V. c #95713F",
"C. c #A06E3B",
"Z. c #A4723B",
"A. c #AC7239",
"S. c #B47A3D",
"D. c #8D6A42",
"F. c #9B7444",
"G. c #836C52",
"H. c #877155",
"J. c #9B7C59",
"K. c #A37641",
"L. c #A57A43",
"P. c #AD7C44",
"I. c #A67E4A",
"U. c #AC7F4B",
"Y. c #B47D44",
"T. c #B97D43",
"R. c #867760",
"E. c #BF803D",
"W. c #9B815E",
"Q. c #AD824C",
"!. c #BB8748",
"~. c #AD8654",
"^. c #BD8C53",
"/. c #B58B59",
"(. c #9B8164",
"). c #B69467",
"_. c #B2906C",
"`. c #C48B4B",
"'. c #C98C49",
"]. c #C28E53",
"[. c #CB9354",
"{. c #CB975A",
"}. c #D39452",
"|. c #D59952",
" X c #DC9D56",
".X c #D49C5B",
"XX c #DB9D59",
"oX c #E09D55",
"OX c #DCA257",
"+X c #D3A05E",
"@X c #DBA15A",
"#X c #E2A45B",
"$X c #C79863",
"%X c #DC9F60",
"&X c #DDA866",
"*X c #D7A974",
"=X c #E4A664",
"-X c #E6AA68",
";X c #E4AD6C",
":X c #E9B26F",
">X c #E9AF72",
",X c #E9B47A",
"<X c #EAB47C",
"1X c #CCAF84",
"2X c #D3AE83",
"3X c #EEBB83",
"4X c #EEBD8B",
"5X c #F2BD86",
"6X c #F2C18E",
"7X c #F1C391",
"8X c #F1C292",
"9X c #F1C99A",
/* pixels */
"j v j v v v v ! ! ! v v v ! 3.^ ^ v v ^ ^ ! ! ^ 3.^ v ! ! v ^ 3.3.^ ^ ! ^ ^ ^ ^ ! ! ^ ^ ! ^ 3.! v ^ ^ ^ ^ ^ 3.^ ^ ! ^ v v ! ^ ! ",
"v v j v v v v ! ! ! v v v ! 3.^ ! ! ! ^ b ! ! ^ ^ ! v ! ! ! ! ! ^ 3.^ ^ 3.^ ! ! v v ^ ! v ^ 3.! v ! ^ ! ! 3.3.^ ^ ! ^ v v v ! ! ",
"j v j j j v v ! ^ ! v v ^ ^ 3.! v 3.3.3.v ! v ! ^ v ! ( ( ~ ~ U U ( ( _ _ ^ ! v v v ^ ! v ^ ^ ! ! ! v ! ! 3.3.3.3.3.3.3.! ! ! ! ",
"j j v j j v v v ^ ^ ! ! 3.3.^ ! v ^ 3.3.! ^ ^ ^ 3.! ~ @ @ @ @ @ # # # # k ! ! ! ! ! ^ ^ ^ ^ ^ ! ! ^ ^ ! ! ^ ! ! ^ 3.3.3.^ 3.^ ^ ",
"j j v j j b v v ! ! ^ ^ 3.3.3.! v ! ^ 3.3.3.3._ P P z : : : - = $ o o : 0 h h Y ^ ^ ! ^ 3.3.^ ! v ^ 3.^ ^ ^ ! v ! 3.^ ^ 3.3.^ ^ ",
"j v v v v v b ^ ^ ^ ^ ! ! ^ 3.! ! ! ! ^ ^ 5.( U # $ y m i u u : : $ o : : # % 7 ! ^ ! ^ ^ 3.3.^ ! ^ ^ ^ ^ 3.^ ! ! ! ^ 3.^ ^ ^ ^ ",
"j v v v v v b 3.3.3.3.b v ^ 3.! ! ^ ^ ^ ^ _ , ; : M B D u o o o o o o . $ i u u 1 ! ^ ^ ^ 3.3.^ ^ ^ ^ ^ ^ 3.3.^ ! ! 3.3.^ ^ ^ 3.",
"j j j j v b b ^ ^ ^ ^ ^ ^ ^ 3.^ ! ^ ^ ) ( R & y i M N A : : 2.1.1.e.1.e.-.y i i : R ( ) ^ ^ v v ! ^ 3.! ! ^ ^ ! b ^ ^ v ^ 3.^ ! ",
"j j j j v b ^ ! ^ ! ! ^ 3.^ ^ ^ ! ^ ^ ) 1 % Z D *.i i m : S .X|.|.|. X XV.o : i S : 1 _ ^ ! v v ! ^ ^ ! ! 3.3.! ! ^ ^ v ^ 3.^ ! ",
"j j v b v v b v v v v ! ^ ^ b ! ^ 3.^ ) , $ M N A - & o x._.<X<X<X<X,X,X$XF.S - m : 1 _ ^ ^ ^ ! ! ! ! ^ ^ ^ 3.3.3.3.^ 3.3.3.! v ",
"j f v b v v b v v v v ! ^ ^ ! v ! 3.) _ * : M M M $ > -.).8X8X8X8X4X4X4X<X=Xa.F : ; 1 ) ^ 3.3.! ! ! v ^ ^ ^ ^ 3.3.3.3.3.3.3.! v ",
"j f j v v b b v b ! v ^ 3.^ ! ! ! ^ / 1 u i M M i o ,.@X<X8X8X8X8X8X8X8X6X8X&XI.o o 1 _ ^ 3.3.3.^ v v 3.3.! v ! ! ! ^ ^ ! ^ ^ v ",
"j f v v b b v v b b b ^ 3.! ! ! ! ^ ~ # i m M i y y y.OX<X8X6X8X8X8X8X8X8X8X=XQ.X o 1 _ ^ ^ ^ ^ ^ v v ^ ^ ! ! ! ! ! ^ ^ ! ^ ^ v ",
"f j v b v v ! 3.v v ^ ^ ^ ^ ^ ! b v I # i m M : $ :.n. X,X8X8X8X8X8X8X8X8X8X=XU.. $ 8 ( ) ! ! ! ^ 3.3.^ ! ^ ^ 3.^ v ! ! v ^ 3.^ ",
"f j v v v v b ^ v v ^ ^ 3.^ ^ ! ! v I # i i i : : v.T.oX#X-X,X<X=X<X8X8X,X%X XU.X : s 2 L ! ! v ^ 3.3.! ! ^ 3.3.^ v ! ! v ^ 3.3.",
"j v j j v v v v ! ^ ! ^ 3.^ v ! ! ^ ~ # i i i : o :.d.m.m.M.D.D.m.$X<X<X/.h.b.a.X : i $ 7 3.! v ! ^ ^ ! ! ^ 3.3.^ ! ^ 3.3.^ ^ ^ ",
"j v j j v v v v b ! ! ^ 3.^ v ! ! ) ~ % y u y ; o o . . X . . .   j.~.~.j.. . . o : i o h 3.^ v ! ^ ^ ! ! ^ 3.3.^ ! ! ^ ^ ^ ^ ^ ",
"j v v v v b b v v v ^ 3.3.^ ! ! ) 4 - i $ o o # # k.2.                    X o o o : i o 7 ! ^ ^ ^ ! ! ! ^ 3.3.3.^ ! v v v ^ ^ ^ ",
"j v v v v b b v v v ! ^ ^ ^ ! ^ ^ 1 = i o u -.u % ^.P.,.o         F a.k.>.  O X . : i o 7 ! ! 3.3.^ ! ^ 3.3.3.^ ^ ^ ! v ! ^ ^ ! ",
"j v v j v v v b ^ ! v v ^ ! v ^ 3.1 ; i o e.&Xy.$ !. X.Xa         G.3X:XD.    . X ; u o 7 v ! 3.3.3.^ 3.3.^ ! ! ^ 3.3.^ 3.3.! ! ",
"j v v v v v v b ^ ^ v v ^ ! ! 3.) 1 = i o y.=Xy.$ P.[.<X_.(.W.J.J.$X;XXX^.F.N.l.X - u o 7 ! ! ^ ^ ^ ^ ^ ^ ! ! ! ^ ^ ^ ^ 3.3.! ! ",
"f f j v b b ^ 3.^ ^ v v ^ ! ^ 5._ 1 - i $ y.+X2.$ B.].6X6X4X6X4X3X=XXX`.{.:XXXQ.. : u $ h ^ ) ! v ! 3.! v v ! 3.3.v v ! 3.^ ! ! ",
"f j j v b b ^ ! ^ ^ v v ^ ^ ^ Y 1 u i i y u V & o 0.B.;X-X;X4X<X=X!.Z.:.h.}.|.Q.. : m m V 7 ( ! ! ! ^ ! b ! ! ^ ^ ! v ! ^ ^ ^ ^ ",
"j j j v b ^ v v ^ 3.3.^ ^ 3.^ P o m i i i y : $ $ D p.Y.}.=X>X$Xz.a.1.p *.l.`.Q.. : m M m . k ^ 3.! v ^ ^ ! ! ! ^ 3.^ v v ^ 3.^ ",
"j j v v b b v v ^ ^ ^ ^ ^ 3.^ Y * i i i i i M y ; & Z s.T.XXOXM.. . . o . . I.Q.X : m i u @ I ^ 3.! v ^ ^ ^ ! ! ! 3.^ v v ^ ^ ^ ",
"f j v v v b b ^ 3.^ ^ ^ 3.3.^ ) / 2 = i y y m : = : : & F.].G p.Q.Q.Y.c.r.o D S . : n $ z 5.) ^ 3.3.3.^ ^ 3.3.! ! 3.^ ! ! ! ! ^ ",
"j v v v v v b b ! ! ^ ^ ^ ^ b ! ! H 0 y : > m : % u y . F.^.. r.OX[.^.A.h.$ : ; o : u 2 Y ^ ! ! ! ^ ^ ) ! ! ! ! ! ) ^ ^ ! v v ! ",
"v v v v v v v b v v ^ ^ ! ! v ^ 3.) ( X y u $ o o i y . K.^.o r.#Xy.y Z.h.$ o o o . # ( ) v ! v v ! ) 6 @ , , @ 1 L ^ 3.! v v ! ",
"v v v j v b b v v v b ! ! ! v ! ! ^ _ g q ; o # ; : S i.M.M.; ;.L.>.: g.r.- # o o % 8 Y ~ I I ~ ! ) ( u.<.V G w.> P ^ ^ ^ ! ! ^ ",
"j v j j v b b v b b v v ! ^ ! v v 3.^ v 3 X X 8 x o 2.#Xa.M N m t i i y y : % o . c | * @ @ @ P ! U 8 1X*Xs.L.:X>.k ^ ^ ^ ^ ^ ^ ",
"j j v v v v v ! ! ! b ! ! ^ ! ! ^ ^ ~ 4 W c 0 } X.* 2.#X'.L.;.*.M u o % 0 ] C c x ] } } ] ] 0 2 7 E ' 2X*Xq.Q.5X>.k b b ^ ^ ^ ^ ",
"j f j v v j v ^ ! v ^ ^ ^ ^ b ! 3./ P X } X.} X.9.* F N.[.[.q.0.:.Z o 0 x ] ..X.......X.X.o.W 0 X u.R./.~.A.`.>X>.k v v ^ ^ ^ ^ ",
"f j v v v v v v ! ^ 3.^ ! ! ! ^ ) 4 # 8 ..$.} X.9.; . . Q.#X#XXX|.a.o C W c X.8.8.9.8.9.8.8.8.}   H.9XM.v.=X X=X>.P ! ! ^ ^ ^ ^ ",
"f v v v j j v v ! ^ 3.^ v v ^ ^ ^ 2 q 9.x 0 ..X.7.* # r y.g.g.g.f.F o ] ]  .}  .8.8.8.} ..8.8.} X G.6XM.v.A.b.y.` _ ^ v ^ ^ ^ 3.",
"j j j j v v v v ! ^ ! ! ! ^ 3.! ! 2 l 9.l * } X.7.* 2 [ 8 + X X X # # }  .X.l c X.X.#.W ..8.8.} $ H.3XB.v.v.r.O _ 3.^ ! v ^ ^ ! ",
"j j j j v ^ v j ! ! ! ! ^ 3.3.! ! 2 l 9.X.] * C 8.* < Q T ' T T ' w o #.X.#.0 * 0 x } x c } ] F d.P. X}.E.'.b.# ( ^ ^ ! v ! ^ ! ",
"j j j j v b b ^ ^ ! ! ! ^ ! b ! ! 2 0 8.8.| X ] 8.* 2 Q Q [ Q Q Q w o #.6.8.; o # 8 0 8 0 0 0 V i.Z. X=X.XS.g.# _ ! b ^ ^ 3.^ ^ ",
"f j j j v v b ^ ^ ^ ! ^ 3.! v ) _ 2 q X.7.| . ] 9.* 2 [ Q Q Q Q Q w o #.8.8.* o o # , , , X o * C z.[.$X{.C.y., _ v v ! 3.3.3.3.",
"f j v v v v v v ^ ^ ^ ^ ^ ^ ! P 4 ] ] } X.] X ] 9.* 2 [ Q Q [ Q Q w o #.8.8.] x X k _ ) ( # o o . % : : : ; R _ ) ! ! ! 3.3.3.! ",
"f j v v v v v v ^ ^ ^ ^ ^ ^ ^ 3 o } } } W x # } 8.* 2 Q Q Q Q Q [ w o #.8.7.} x X k ^ ! / H 7 7 7 7 7 7 7 7 ( 3.^ ! ^ ^ ^ 3.^ ! ",
"f f v v v v v v b ! 3.^ ^ ^ 3.3 * } } } * * 0 } 8.* 2 [ Q Q [ Q [ w o X.7.7.} x X h ! ! ! ! ^ ^ 3.3.3.3.^ ^ ^ 3.v v ^ ^ v v v ! ",
"f f j j v v v v b ! ^ ^ ^ 3.3.3 # ] c 0 # # c  .8.* < [ Q Q [ Q [ w o X.6.X.} x X k ! ! ! ! ^ ^ ^ ^ ^ ^ 3.3.3.^ ! v ^ ^ v v v ^ ",
"f f f f v b v v ! ^ ^ ^ ^ ^ ^ 3 # C q * o * ] ..8.* < [ Q Q [ [ [ w o X.6.X.] q X k ^ ! ! ^ ^ ! ! ! ! ^ 3.3.^ ^ ^ 3.^ ^ v j ! 3.",
"f f j v v v v v v v ^ ^ ^ ^ ^ 3 V ).I.I.s * W ..8.* 2 Q [ Q [ [ [ w o #.8.X.] 0 X k ^ ! ! ! ^ ^ ! ! ^ 3.^ ! ! ^ ^ ^ 3.^ ! ! ! ! ",
"f f j v v f v v j v ! ^ ^ ^ ^ 6 G *X[.XXS * x  .8.* # r e e e e e 8 o ..X.X.} x # P _ ) ! ! ^ 3.^ ^ 3.3.! v ! ! ! ^ 3.3.3.3.! v ",
"j j v v v v j v b ! v ! 3.^ ^ 3 A Y.A. XS # x  .8.* . X . . . . X + o * x X...] 8 # 2 ) ! v ^ 3.3.^ ! 3.3.! ! ^ ^ 3.3.3.! v b ^ ",
"j v v v v v v v b ^ v ^ 3.3.^ ( ` t.c.#XS * ..X.8.* # e r r r r r e 8 o l 8...] 0 # 1 ) ! v ^ 3.3.^ ! 3.3.^ ! 3.3.3.3.3.v v v 3.",
"f j j j j v v b ^ ^ ^ ^ ^ ^ ^ 3.) 7 w./.V * 8.8.8.* 2 [ T K K T [ [ T # x 9.X.] x * 1 3.3.^ ^ 3.3.^ v ! 3.3.3.^ ^ 3.3.3.! v ^ 3.",
"f j j v v v v b ^ ^ ^ ^ 3.^ ! ^ 3.5.( # ; x 7.8.7.r K [ 8 # # 2 [ [ T # x 9.X. .} 8 1 ) ^ ^ ^ ^ ^ ! v ^ 3.3.3.! ^ 3.3.^ ! ! 3.3.",
"j j j v v v v ! ^ ^ v v 3.! v v ! 3./ X e ] #.o.8.[ ' [ 8 # # 2 [ { { 8 c 9.X.....r 4 / / ! ^ b v ! ^ ^ ^ ^ ! ! ! 3.3.3.3.3.3.3.",
"j j j v v v b ! ^ ^ v v ^ ! v v ! ^ / 1 E  ...#.$.&.@.[ 8 o o # T O.@.K ] 8.#.X.X.W q @ L b ^ v v ^ ^ ^ ^ ^ ! ! ! ^ 3.3.3.3.^ ^ ",
"f j v v v b b v v v ! ! ! ! ^ v v ! ) _ ) Y X c ..%.@.[ 8 . o o # K O.%.[ * 8 8 * # # O P ^ b v ^ ^ v v v ^ 3.^ ^ ^ 3.3.3.^ ! ! ",
"f j v v v b b v v v ! ^ ! ! 3.v v ! ! ^ ^ U O e ' %.+.[ 8 # 6 4 4 J [ %.[ # # # # * 6 4 Y 3.! ! ^ ^ v v v ^ 3.^ ^ ^ 3.^ ^ ^ ! ^ ",
"j v v j j v b ! ^ ^ ^ ^ ^ ! ! ^ ^ ^ ^ ! ~ U r 2 @ @.+.[ 8 6 _ / _ U * O.@.K r 8 X ~ 5._ ) ^ ^ ^ ^ ^ ! ^ v v ^ 3.^ ^ ! v v v ^ 3.",
"j v j j j v v ! ^ ^ ^ ^ ^ ! ! ^ 3.3.^ ) 1 * 9 ; # 8 8 * # 3 ! v v ~ @ K { @.{ r X ! ^ ! ! ! ! ^ 3.^ ! ! v v ^ 3.^ ^ ! ! ! ! ^ 3.",
"j j j j v v j v 3.3.^ ^ ! ^ ^ 3.3.3./ U q - u : $ $ % o o 3 ^ ^ ^ _ P 8 r O.[ w # U ( ! v v v ! 3.^ v v v v ^ ^ ^ 3.3.^ ^ ^ ^ 3.",
"j j j v v v v v ! ^ ^ ! v ^ ^ ^ ^ ^ U * -.*.*.*.*.M u o . 3 ! ! ! ^ ! 1 o o ; ; % # , ! v ! ! ! 3.^ v v ! ! ^ 3.^ 3.^ ^ ! ^ ^ ^ ",
"j v v j j v v ! v v ^ ! v b ! b b ! U $ Z M M M Z u : o h I ! v ! ^ ! 1 $ - : y = $ X ! ^ 3.3.^ ^ ^ ! ^ 3.^ ^ 3.^ ! ! v v ^ 3.3.",
"j j j v v v v b v v ^ ! v ! ! ! ! ! ( @ @ @ @ X X # # , _ ^ ! ! ! 3.! 1 > =.=.=.=.i X ! 3.^ 3.3.^ ! ! ^ 3.^ ^ 3.^ ! ! v v ^ 3.3.",
"j f j v v v j j v b ^ ^ 3.^ ^ ^ ^ ! ) ~ ) ) ) / / / ) _ 3.3.3.3.^ ^ ! I h y y y y & @ ) ^ v ! ^ ^ ! v ! ^ ^ ! ! ! v ! ! ! 3.3.3.",
"j f f v v v v v ! ! ! ^ 3.^ ^ ! ! ! ^ ! ^ 3.^ ! ! ! ^ ^ 3.3.3.3.^ ^ ^ ^ / 4 2 2 1 2 6 ) ^ v ! ^ ! ! ! ^ ^ ! ! ^ ! v ! ^ ! ! ^ 3.",
"f d f j v v b ^ ! ! b ^ ^ ! ^ v v ! ^ ^ ^ 3.^ ! v ! ! ^ 3.3.3.^ ^ 3.3.! ! _ 5._ / / _ 3.^ v ! ^ ! ! ! ^ ^ v ! 3.3.! ^ ^ ! v ! ^ ",
"f f j j v v b ^ v v v b ! ! ^ ! b v ! ^ 3.3.^ ! ! ! v ! ^ ^ ! ! ! ^ ^ ^ ! ! ^ 3.! ! ^ ^ ^ ! ^ ^ ! ^ ^ ^ ^ v ! 3.^ ^ ^ ^ ^ ^ ! ! ",
"j j j v v v b ! v v v v v b ^ ^ ! v v 3.3.^ ! ^ 3.! ! ! ^ ! v v v ! ^ ^ ^ ! ^ 3.3.3.^ ^ ^ ^ ^ ! ! ^ 3.^ ! ! ! ^ ^ 3.3.^ ^ 3.! v "
};
