/* XPM */
static char *e73d27deee684f0d9c24480ad73292d9KXAnvYKfWJV5hSfo[] = {
/* columns rows colors chars-per-pixel */
"64 64 176 2 ",
"   c #002717",
".  c #002917",
"X  c #002D1A",
"o  c #00341E",
"O  c #00391F",
"+  c #190027",
"@  c #1E0029",
"#  c #1B1429",
"$  c #1D1C28",
"%  c #23002A",
"&  c #2C002C",
"*  c #380026",
"=  c #35002A",
"-  c #3B012C",
";  c #22132B",
":  c #2D152E",
">  c #28182E",
",  c #31152D",
"<  c #321E2C",
"1  c #39182A",
"2  c #350131",
"3  c #3A0034",
"4  c #142F20",
"5  c #1E2F27",
"6  c #1C272B",
"7  c #1C2D2A",
"8  c #003620",
"9  c #003C21",
"0  c #0B3924",
"q  c #163322",
"w  c #193422",
"e  c #103B26",
"r  c #123A28",
"t  c #272A2E",
"y  c #3F2A24",
"u  c #35242A",
"i  c #3E2929",
"p  c #233624",
"a  c #600317",
"s  c #6C0217",
"d  c #65011A",
"f  c #6D031B",
"g  c #630E1F",
"h  c #770416",
"j  c #7C0215",
"k  c #770219",
"l  c #790218",
"z  c #750C1F",
"x  c #4B0125",
"c  c #44022B",
"v  c #4B012D",
"b  c #5C0220",
"n  c #5E0926",
"m  c #56052F",
"M  c #5D0129",
"N  c #4F1927",
"B  c #5E1A26",
"V  c #450231",
"C  c #550132",
"Z  c #5C0234",
"A  c #540038",
"S  c #650224",
"D  c #640A22",
"F  c #610128",
"G  c #6B002C",
"H  c #750726",
"J  c #7A0324",
"K  c #7E0128",
"L  c #72082A",
"P  c #621325",
"I  c #761522",
"U  c #610134",
"Y  c #6A0132",
"T  c #69003C",
"R  c #740034",
"E  c #472525",
"W  c #4B2526",
"Q  c #412B27",
"!  c #004022",
"~  c #8F010E",
"^  c #850213",
"/  c #830219",
"(  c #8B031A",
")  c #930214",
"_  c #9F0316",
"`  c #9B0D12",
"'  c #90021B",
"]  c #9A021B",
"[  c #A8000F",
"{  c #B50D0E",
"}  c #A90D15",
"|  c #B50213",
" . c #BB0413",
".. c #B1051E",
"X. c #A31316",
"o. c #AC1012",
"O. c #A9111F",
"+. c #B01610",
"@. c #BC1E11",
"#. c #BA101D",
"$. c #800D20",
"%. c #990127",
"&. c #930A23",
"*. c #AC0423",
"=. c #B20B22",
"-. c #C0000C",
";. c #CC040A",
":. c #D60707",
">. c #D00308",
",. c #D30A0B",
"<. c #C2170F",
"1. c #C9190E",
"2. c #D61609",
"3. c #CB0511",
"4. c #CD0C17",
"5. c #C30718",
"6. c #CE0A1B",
"7. c #D50515",
"8. c #DC0C17",
"9. c #D0091B",
"0. c #C11210",
"q. c #CB131B",
"w. c #CD1E1E",
"e. c #D11517",
"r. c #D5141C",
"t. c #DA131A",
"y. c #D7181D",
"u. c #DB1B1E",
"i. c #ED1B07",
"p. c #E01108",
"a. c #E91F0D",
"s. c #E21010",
"d. c #E21F15",
"f. c #EC1D12",
"g. c #D5220C",
"h. c #C32A15",
"j. c #D22510",
"k. c #E7200E",
"l. c #EA240D",
"z. c #F1220E",
"x. c #ED2314",
"c. c #E2261C",
"v. c #EC261E",
"b. c #F22515",
"n. c #F32A15",
"m. c #F33316",
"M. c #F1301C",
"N. c #C71520",
"B. c #DA1622",
"V. c #D91E20",
"C. c #E62226",
"Z. c #E82124",
"A. c #ED2F24",
"S. c #E52629",
"D. c #E92F2D",
"F. c #F23021",
"G. c #F23D23",
"H. c #E43533",
"J. c #E73830",
"K. c #F84016",
"L. c #F44426",
"P. c #F64B24",
"I. c #F6592E",
"U. c #EC463D",
"Y. c #ED4B3F",
"T. c #F14434",
"R. c #EB4B42",
"E. c #EE5044",
"W. c #F46D43",
"Q. c #F3674F",
"!. c #F67148",
"~. c #F67457",
"^. c #F98B66",
"/. c #F79172",
"(. c #F6A97F",
"). c #F9D7B8",
/* pixels */
"X o X o o o o 8 8 8 o o o 8 ! 9 9 o o 8 9 8 8 9 ! 9 o 8 8 o 9 ! ! 9 9 8 9 9 9 9 8 8 9 9 8 9 9 8 o 9 9 9 9 9 ! 9 9 8 9 o o 8 8 8 ",
"o o X o o o o 8 8 8 o o o 8 ! 9 8 8 8 9 O 8 8 8 9 8 o 8 8 o 8 9 8 ! 9 9 ! 9 8 8 o o 9 8 o 9 ! 8 o 8 9 8 8 ! ! 9 9 8 9 O o o 8 8 ",
"X o X X X o o 8 9 8 o o 9 9 ! 8 o ! ! ! o 8 o 8 9 o o 8 9 o o o o 9 ! ! ! 9 8 o o o 9 8 o 9 9 8 8 8 o 8 8 9 ! ! ! ! ! ! 8 8 8 8 ",
"X X o X X o o o 9 9 8 9 ! ! 9 8 o 9 9 ! 9 9 9 9 ! 8 o 8 9 9 8 8 9 9 ! 9 9 8 8 8 8 8 9 9 9 9 9 8 8 8 9 8 8 9 8 8 9 ! ! 9 9 9 9 9 ",
"X X o X X o o o 8 8 9 9 ! ! ! 8 o 8 9 ! ! ! ! ! ! 9 8 8 9 9 9 ! ! ! ! ! 9 8 8 9 9 9 9 9 ! ! 9 8 o 9 ! 9 9 9 8 o 8 ! 9 9 9 ! 9 9 ",
"X o o o o o O 9 9 9 9 8 8 9 ! 8 8 8 8 9 9 9 8 8 9 9 9 8 8 9 9 9 9 9 8 8 9 9 9 8 9 9 8 9 9 ! ! 9 8 9 9 9 9 9 9 8 8 8 9 9 9 9 9 9 ",
"X o o o o o O ! ! ! ! o o 9 ! 8 8 9 9 9 9 9 o 8 8 8 9 9 9 9 9 9 9 9 8 o 9 9 9 8 9 9 9 9 9 ! ! 9 9 9 9 9 9 ! ! 9 8 9 ! ! 9 9 9 ! ",
"X X X X o O O 9 9 8 9 9 9 9 ! 9 8 9 9 8 8 9 ! 9 8 o 8 9 9 8 8 9 ! 9 8 8 8 o 8 9 8 9 ! 9 9 9 o o 8 9 ! 8 8 9 9 8 O 9 9 o 9 ! 9 8 ",
"X X X X o O 8 8 9 8 8 9 ! 9 9 9 8 9 9 8 8 9 ! ! 8 o O ! 9 8 8 9 ! 9 9 8 8 o 8 9 8 8 ! 9 9 8 o o 8 9 9 8 8 9 9 8 8 9 9 o 9 ! 9 8 ",
"X X o O o o O o o o o 8 9 9 O 8 9 ! 9 9 9 9 o 9 ! 8 9 ! 9 o o 9 ! ! 9 o 8 8 8 9 9 8 9 8 9 ! 9 8 8 8 8 9 9 9 ! ! ! ! 9 ! ! ! 8 o ",
"X . o O o o O o o o o 8 9 9 8 o 9 ! 9 9 9 9 o 8 ! 9 9 ! 9 8 8 9 ! ! 9 o 8 9 9 9 ! 8 9 9 9 ! ! 8 8 8 o 9 9 9 9 ! 9 9 ! ! ! ! 8 o ",
"X . X o o O O o O 8 o 9 ! 9 8 8 8 ! 9 9 9 9 8 o 8 9 9 ! 9 9 9 8 9 ! 9 9 ! 9 8 9 ! 9 9 9 9 ! ! ! 9 o o ! ! 8 o 8 8 8 9 ! 8 9 9 o ",
"X . o o O O o o O O O 9 ! 8 8 8 8 9 9 9 9 9 8 o 8 9 9 9 9 9 9 8 8 ! 9 9 ! ! 8 8 9 ! 9 9 9 9 9 9 9 o o 9 9 8 8 8 8 8 9 9 8 9 9 o ",
". X o O o o O ! o o 9 9 9 9 9 8 8 o o 8 9 9 ! 8 8 o o o 8 o o 9 9 9 9 9 8 9 8 o 8 8 8 8 8 8 8 8 9 ! ! 9 8 8 9 ! 9 o 8 8 o 9 ! 9 ",
". X o o o o O 9 o o 8 9 ! 9 9 8 8 o o 8 9 8 9 8 8 8 o o 8 o o 9 9 9 9 9 8 9 8 o 8 8 8 8 8 8 8 o 9 ! ! 8 8 9 ! ! 9 o 8 8 o 9 ! ! ",
"X o X X o o o o 8 8 8 9 ! 9 o 8 8 9 9 8 o 8 9 9 9 8 8 ! ! 9 9 9 9 9 9 ! 9 ! o o ! ! 9 8 9 ! 8 o 8 9 9 8 8 9 ! ! 9 8 9 ! ! 9 9 9 ",
"X o X X o o o o O 8 8 9 ! 9 o 8 8 ! 9 8 o 8 9 ! 9 9 9 9 9 9 9 9 8 8 8 9 ! ! 8 o 9 9 8 o 9 ! 9 o 8 9 9 8 8 9 ! ! 9 8 8 9 9 9 9 9 ",
"X o o o o O O o X o 9 ! ! 9 8 8 8 9 8 8 8 9 9 ! 9 ! 9 8 o 8 ! 8 O 8 8 8 8 ! 9 9 9 8 o 8 8 8 9 9 9 8 8 8 9 9 ! ! 9 8 o o o 9 9 9 ",
"X o o o o O O o o o 8 9 9 9 8 9 9 8 8 8 8 8 9 9 8 ! ! 9 8 9 ! 9 9 9 9 8 8 9 9 ! 9 9 O 8 9 8 8 ! ! 9 8 9 ! ! ! 9 9 8 8 o 8 9 9 8 ",
"X o o X o o o o 9 8 o o 9 8 o 9 ! 9 9 9 9 8 9 9 8 9 9 9 ! ! 9 9 9 ! 9 8 8 o 9 ! ! 9 9 ! ! o 8 ! ! 9 9 ! ! 9 8 8 9 ! ! 9 ! ! 8 8 ",
". o o o o o o O 9 9 o o 9 8 8 ! ! 8 8 9 8 8 9 8 o 8 8 9 ! r u N B i e 9 8 o 9 ! ! ! 9 9 9 8 9 ! 9 9 9 9 9 8 8 8 9 9 9 9 ! ! 8 8 ",
". . X o O O 9 9 9 9 o o 9 8 9 ! 9 o o 8 o 8 9 8 o o 8 ! t m K =.r.N.&.Q 8 o 8 ! ! 9 9 9 9 ! ! 8 o 8 ! 8 o o 8 ! ! o o 8 ! 9 8 8 ",
". X X o O O 9 8 9 9 o o 9 9 9 9 9 o o o O 8 9 8 8 o 8 7 V R %.6.A./.U...W 8 9 9 8 8 9 9 9 ! ! 8 8 8 9 8 O 8 8 9 9 8 o 8 9 9 9 8 ",
"X X X o O 9 o o 9 ! ! 9 9 ! ! 8 8 9 8 o 8 9 9 9 9 9 0 2 A R *.6.v.^.).U...p ! 9 o o 9 9 8 9 9 9 ! 8 o 8 9 8 8 8 9 ! 9 o o 9 ! 9 ",
"X X o o O O o o 9 9 9 9 9 ! 9 8 8 9 9 o 9 9 8 9 9 9 6 3 T G *.9.x.!.(.~.B.I 9 9 8 8 9 9 8 ! 9 9 ! 8 o 9 9 9 8 8 8 ! 9 o o 9 9 9 ",
". X o o o O O 9 ! 9 9 9 9 9 9 8 o 9 9 ! ! 8 o 8 9 9 > 3 Z S _ 4.x.m.W.Q.7.( q 9 9 9 9 8 9 ! 9 9 ! ! ! 9 9 ! ! 8 8 ! 9 8 8 8 8 9 ",
"X o o o o o O O 8 8 9 9 8 9 O 8 8 9 9 9 O o 8 8 9 9 : 3 U S }  .d.n.I.T.S.( w 9 9 9 9 8 9 9 9 8 8 9 9 9 8 8 9 9 9 9 9 9 8 o o 8 ",
"o o o o o o o O o o 9 9 8 8 o 9 ! 9 9 9 X o 9 9 9 9 : 3 C H / e.x.L.K.A.8.( w 9 ! ! 9 8 8 o 8 o o 8 8 9 8 o 8 ! ! o 9 ! 8 o o 8 ",
"o o o X o O O o o o O 8 8 8 o 8 9 9 9 8 8 9 9 9 9 ! : 2 U J ' t.f.x.L.E.C.( w 9 9 ! 9 8 o 8 8 o o 8 9 9 9 9 9 9 8 8 9 9 9 8 8 9 ",
"X o X X o O O o O O o o 8 9 9 o o ! 9 O 9 ! 9 9 ! ! , 2 Y F k | :.m.P.Y.Z.( w ! 9 ! 9 8 o 9 8 o 8 9 9 ! ! ! ! 8 8 8 9 9 9 9 9 9 ",
"X X o o o o o 8 8 8 O 8 9 9 8 8 9 8 8 8 9 9 o o 9 9 , 2 Y L ( [ ,.z.P.R.t.j q ! 9 9 8 o 8 ! ! 9 9 ! 9 8 8 ! 8 8 8 8 O O 9 9 9 9 ",
"X . X o o X o 9 8 o 9 9 9 9 O 8 ! 8 o 9 9 9 o o 9 8 ; 2 Z M ] | >.z.G.Y.q.s 4 ! 9 9 o o 8 ! ! ! ! ! 9 o o ! 8 o 9 O o o 9 9 9 9 ",
". X o o o o o o 8 9 ! 9 8 8 8 9 9 8 o 9 9 8 8 8 9 8 # % & c J ] | 4.w.O.) h q 8 9 9 9 9 9 9 9 ! 9 8 8 8 8 9 8 9 9 8 8 8 9 9 9 9 ",
". o o o X X o o 8 9 ! 9 o o 9 9 ! o o 9 9 9 8 8 8 o # % V = f ` @.,.c.H.y.j q 8 9 ! ! ! 9 9 ! ! 9 8 8 ! 9 9 9 ! ! ! 9 o 8 9 9 ! ",
"X X X X o o o o 8 9 8 8 8 9 ! 8 o 8 9 9 o o 9 9 8 9 # % - D h +.g.l.G.R.u.j q 8 o o 9 8 ! ! 9 8 8 o 8 ! 9 8 8 8 9 ! 9 8 o 8 9 8 ",
"X X X X o 9 o X 8 8 8 8 9 ! ! 8 o 8 9 9 o o 9 9 9 ! # % & * a { 2.i.F.R.V.j q 8 o o 8 8 9 ! 8 8 8 o o 8 8 O o 8 9 ! ! 9 o 8 9 8 ",
"X X X X o O O 9 9 9 8 8 9 8 O 8 8 o o o 9 9 8 8 8 8 # % v x X.h.j.p.b.D.u.^ w ! 8 o 8 9 ! 8 8 9 9 8 8 8 8 9 9 9 9 8 O 9 9 ! 9 9 ",
". X X X o o O 9 9 9 8 9 ! 8 o 8 O X X o 9 ! 8 o 8 8 # % c x l o.1.k.M.H.4.l q ! 8 o 8 ! ! 8 8 ! ! 8 8 o 8 ! ! ! 9 o o 8 ! ! ! ! ",
". X o o o o o o 9 9 9 9 9 9 8 8 o o o o 9 9 8 9 9 8 ; @ - S l ~ <.a.n.J.4.f q 8 9 ! ! 9 8 9 9 9 ! 9 8 9 9 o 8 ! 9 8 8 8 ! ! ! 8 ",
". X o o o o o o 9 9 9 9 9 9 9 8 8 8 o 8 9 9 8 9 ! o $ + v - f ` { ;.s.u.#.g 8 o 9 ! 9 8 8 8 9 9 ! 9 9 ! 9 o 8 ! 9 8 8 9 9 ! 9 8 ",
". . o o o o o o o 8 ! 9 9 9 ! 9 8 o o 9 ! 9 o 8 8 9 7 @ = - b ` 0.-.3.5./ E 9 8 o o 8 8 8 9 9 9 ! 9 9 9 9 9 9 ! o o 9 ! o o o 8 ",
". . X X o o o o O 8 9 9 9 9 ! 9 8 o 8 9 ! 9 8 8 8 8 8 , % = x d h ) _ ( z 0 9 9 8 o 8 8 8 9 9 9 9 9 9 9 9 ! ! ! 8 o 9 ! o X o 9 ",
". . . . o O o o 8 9 9 9 9 9 9 9 9 9 9 ! ! 9 8 o o o o 0 < - M b d j f $.w ! ! ! ! 9 9 8 8 9 9 8 8 8 8 9 ! ! ! 9 9 ! 9 9 o X 8 ! ",
". . X o o o o o o o 9 9 9 9 9 9 9 9 8 9 9 9 8 8 8 8 o 9 9 5 1 n D P y 0 8 9 8 8 9 ! 9 8 8 8 9 9 9 9 9 ! 9 8 8 9 9 9 ! 9 8 8 8 8 ",
". . X o o . o o X X 8 9 9 9 9 9 9 9 o 9 8 8 9 9 ! 8 9 ! ! 9 9 o o 9 ! 9 9 9 o o 9 ! ! 9 8 8 9 ! 9 9 ! ! 8 o 8 8 8 8 9 9 ! ! 8 o ",
"X X o o o o X o O 8 o 8 ! 9 9 9 o 8 9 8 o o 8 9 9 9 9 ! 9 o o o 9 ! ! 9 O 8 8 8 8 9 8 8 8 o 9 ! ! 8 8 ! ! 8 8 9 9 9 ! ! 8 o O 9 ",
"X o o o o o o o O 9 o 8 ! ! 9 9 o 8 9 o o o o 8 9 9 ! 9 9 o o O 9 ! ! 9 o 8 9 8 9 8 8 8 8 o 9 ! ! 8 8 9 ! 9 9 ! ! ! ! ! o o o ! ",
". X X X X o o O 9 9 9 9 9 9 9 ! ! ! 9 o 9 ! 9 8 9 9 9 8 8 9 9 8 8 8 9 ! 9 9 9 9 9 ! 9 ! ! 9 9 ! ! 9 o 8 ! ! ! 9 9 ! ! ! 8 o 8 9 ",
". X X o o o o O 9 9 8 9 ! 9 8 9 9 ! 9 8 9 ! 9 9 9 9 9 9 9 ! 9 8 9 8 9 ! ! 9 9 9 9 9 ! ! 9 9 9 9 ! 9 o 8 ! ! ! 8 9 ! 9 9 8 8 9 ! ",
"X X X o o o o 8 9 9 o o ! 8 o O 8 ! ! ! 9 9 ! o o 9 ! ! 9 9 8 8 9 9 9 9 9 ! ! ! 9 9 ! ! 8 8 9 8 o 8 9 9 9 9 8 8 8 ! ! ! ! ! ! ! ",
"X X X o o o O O 9 9 o o 9 8 o o 8 9 ! ! ! 9 9 o o 9 ! 9 9 9 9 8 9 9 9 9 9 ! ! ! 9 9 9 9 o 8 9 8 O 9 9 9 9 9 8 8 8 9 ! ! ! ! 9 9 ",
". X o o o O O o o o 8 8 8 8 9 o o 8 9 9 9 8 o 9 ! 9 9 8 8 8 9 ! 9 8 o 8 8 8 9 ! ! ! 9 8 8 ! 8 o 9 9 o o o 9 ! 9 9 9 ! ! ! 9 8 8 ",
". X o o o O O o o o 8 9 8 8 ! o o 8 8 9 9 8 o 9 ! 9 8 8 8 9 9 ! ! 9 o o 8 8 8 9 9 ! 9 8 9 ! 8 8 9 9 o o o 9 ! 9 9 9 ! 9 9 9 8 9 ",
"X o o X X o O 8 9 9 9 9 9 8 8 9 ! 9 9 8 8 8 8 9 9 o o 9 9 9 8 o o ! 9 8 8 9 8 8 8 8 9 9 9 9 9 9 9 9 8 9 o o 9 9 9 9 8 o o o 9 ! ",
"X o X X X o o 8 9 9 9 9 9 8 8 9 ! ! 9 8 o 8 9 ! ! o o 9 9 9 9 o o ! 9 9 8 9 8 8 8 8 9 8 8 8 8 9 ! 9 8 8 o o 9 ! 9 9 8 8 8 8 9 ! ",
"X X X X o o X o ! ! 9 8 8 9 9 ! ! ! 8 o 8 o 8 ! ! 8 o o 8 9 9 9 9 ! ! 9 9 9 o o 9 9 8 8 o o o 8 ! 9 o o o o 9 9 9 ! ! 9 9 8 9 ! ",
"X X X X o o o o 8 9 8 8 o 9 9 9 9 9 8 8 8 o 8 ! ! 8 o 8 9 9 8 8 9 9 ! 9 9 8 o o 9 9 8 8 o 8 8 8 ! 9 o o 8 8 9 ! 9 9 9 9 8 9 9 9 ",
"X o o X X o o 8 o o 9 8 o O 8 O O 8 8 9 ! 8 8 ! ! 8 o 9 9 8 8 o 8 ! 9 9 9 9 8 8 9 8 8 9 9 ! ! 9 9 9 8 9 ! 9 9 ! 9 8 8 o o 9 9 ! ",
"X X X o o o o O o o 9 8 o 8 8 8 8 9 8 9 ! 9 9 ! 9 8 o 9 ! 8 8 8 8 9 9 9 ! 9 9 9 ! ! 9 9 ! 9 ! ! 9 8 8 9 ! 9 9 ! 9 8 8 o o 9 ! ! ",
"X . X o o o X X o O 9 9 ! 9 9 9 9 8 8 o 9 ! ! O o 8 9 9 9 ! ! 9 9 9 8 9 9 9 ! ! ! ! ! ! 9 o 8 9 9 8 o 8 9 9 8 8 8 o 8 8 8 ! ! ! ",
"X . . o o o o o 8 8 8 9 ! 9 9 8 8 8 9 8 9 ! 9 8 8 8 9 9 ! ! ! ! 9 9 9 8 8 9 ! ! 8 8 9 ! 9 o 8 9 8 8 8 9 9 8 8 9 8 o 8 9 8 8 9 ! ",
".   . X o o O 9 8 8 O 9 9 8 9 o o 8 9 9 9 ! 9 8 o 8 8 9 ! ! ! 9 9 ! ! 8 o 9 ! ! o o 9 ! 9 o 8 9 8 8 8 9 9 o 8 ! ! 8 9 9 8 o 8 9 ",
". . X X o o O 9 o o o O 8 8 9 8 O o 8 9 9 ! 9 8 8 8 o 8 9 9 8 8 8 9 9 9 8 8 9 ! 8 8 9 9 9 8 9 9 8 9 9 9 9 o 8 ! 9 9 9 9 9 9 8 8 ",
"X X X o o o O 8 o o o o o O 9 8 9 o o ! ! 9 8 9 ! 8 8 9 9 8 o o o 8 9 9 9 8 9 ! ! ! 9 9 9 9 9 8 8 9 ! 9 8 8 8 9 9 ! ! 9 9 ! 8 o "
};
